<?xml version="1.0" encoding="UTF-8" standalone="no"?>
<svg
   width="1200"
   height="700"
   viewBox="0 0 1200 700"
   version="1.1"
   id="hybrid-connectivity"
   sodipodi:docname="hybrid-multi-vpc-connectivity.svg"
   xml:space="preserve"
   inkscape:version="1.4 (86a8ad7, 2024-10-11)"
   xmlns:inkscape="http://www.inkscape.org/namespaces/inkscape"
   xmlns:sodipodi="http://sodipodi.sourceforge.net/DTD/sodipodi-0.dtd"
   xmlns="http://www.w3.org/2000/svg"
   xmlns:svg="http://www.w3.org/2000/svg"><sodipodi:namedview
     id="namedview36"
     pagecolor="#ffffff"
     bordercolor="#000000"
     borderopacity="0.25"
     inkscape:showpageshadow="2"
     inkscape:pageopacity="0.0"
     inkscape:pagecheckerboard="0"
     inkscape:deskcolor="#d1d1d1"
     inkscape:zoom="2.5842857"
     inkscape:cx="599.97236"
     inkscape:cy="350"
     inkscape:window-width="3840"
     inkscape:window-height="2036"
     inkscape:window-x="-12"
     inkscape:window-y="-12"
     inkscape:window-maximized="1"
     inkscape:current-layer="hybrid-connectivity" /><defs
     id="defs5"><!-- Arrow markers --><marker
       id="arrow-dx"
       markerWidth="10"
       markerHeight="7"
       refX="9"
       refY="3.5"
       orient="auto"><polygon
         points="0 0, 10 3.5, 0 7"
         fill="#ff4f81"
         id="polygon1" /></marker><marker
       id="arrow-vpn"
       markerWidth="10"
       markerHeight="7"
       refX="9"
       refY="3.5"
       orient="auto"><polygon
         points="0 0, 10 3.5, 0 7"
         fill="#007bff"
         id="polygon2" /></marker><marker
       id="arrow-peering"
       markerWidth="10"
       markerHeight="7"
       refX="9"
       refY="3.5"
       orient="auto"><polygon
         points="0 0, 10 3.5, 0 7"
         fill="#28a745"
         id="polygon3" /></marker><marker
       id="arrow-privatelink"
       markerWidth="10"
       markerHeight="7"
       refX="9"
       refY="3.5"
       orient="auto"><polygon
         points="0 0, 10 3.5, 0 7"
         fill="#6f42c1"
         id="polygon4" /></marker><marker
       id="arrow-tgw"
       markerWidth="10"
       markerHeight="7"
       refX="9"
       refY="3.5"
       orient="auto"><polygon
         points="0 0, 10 3.5, 0 7"
         fill="#232f3e"
         id="polygon5" /></marker><!-- AWS Transit Gateway Pattern --><pattern
       id="tgw-pattern"
       width="10"
       height="10"
       patternUnits="userSpaceOnUse"
       patternTransform="rotate(45)"><rect
         width="10"
         height="10"
         fill="#f8991d"
         id="rect5" /></pattern></defs><!-- Title --><text
     x="600"
     y="40"
     font-family="Arial, sans-serif"
     font-size="24"
     font-weight="bold"
     text-anchor="middle"
     fill="#333333"
     id="text5">Hybrid Multi-VPC Connectivity Architecture</text><!-- Part 1: On-Premises Data Center (Left Third) --><rect
     x="50"
     y="80"
     width="350"
     height="550"
     rx="10"
     ry="10"
     fill="#f5f5f5"
     stroke="#d0d0d0"
     stroke-width="1"
     id="rect6" /><text
     x="225"
     y="110"
     font-family="Arial, sans-serif"
     font-size="18"
     font-weight="bold"
     text-anchor="middle"
     fill="#333333"
     id="text6">On-Premises Data Center</text><!-- Internal Resources --><text
     x="160"
     y="250"
     font-family="Arial, sans-serif"
     font-size="40"
     text-anchor="middle"
     fill="#666666"
     id="text7">🏢</text><text
     x="160"
     y="290"
     font-family="Arial, sans-serif"
     font-size="14"
     font-weight="bold"
     text-anchor="middle"
     fill="#333333"
     id="text8">Corporate Resources /</text><text
     x="160"
     y="310"
     font-family="Arial, sans-serif"
     font-size="14"
     font-weight="bold"
     text-anchor="middle"
     fill="#333333"
     id="text9">User Network</text><!-- Customer Gateway (CGW) --><text
     x="339.2261"
     y="388.89993"
     font-family="Arial, sans-serif"
     font-size="12px"
     font-weight="bold"
     text-anchor="middle"
     fill="#333333"
     id="text11">Customer Gateway</text><text
     x="339.2261"
     y="403.89993"
     font-family="Arial, sans-serif"
     font-size="12px"
     font-weight="bold"
     text-anchor="middle"
     fill="#333333"
     id="text12">(CGW)</text><!-- Part 2: AWS Cloud (Right Two-Thirds) --><rect
     x="450"
     y="80"
     width="700"
     height="550"
     rx="10"
     ry="10"
     fill="#f2f7fd"
     stroke="#aacbee"
     stroke-width="1"
     id="rect12" /><text
     x="800"
     y="110"
     font-family="Arial, sans-serif"
     font-size="18"
     font-weight="bold"
     text-anchor="middle"
     fill="#232f3e"
     id="text13">AWS Cloud</text><!-- AWS Transit Gateway (TGW) --><circle
     cx="800"
     cy="330"
     r="50"
     fill="#ffffff"
     stroke="#232f3e"
     stroke-width="2"
     id="circle13" /><text
     x="805.80426"
     y="390.7131"
     font-family="Arial, sans-serif"
     font-size="14px"
     font-weight="bold"
     text-anchor="middle"
     fill="#232f3e"
     id="text14">AWS Transit Gateway</text><!-- VPC 1: Internal Apps VPC --><rect
     x="500"
     y="150"
     width="200"
     height="150"
     rx="10"
     ry="10"
     fill="#e0f2f1"
     stroke="#b2dfdb"
     stroke-width="1"
     id="rect14" /><text
     x="600"
     y="170"
     font-family="Arial, sans-serif"
     font-size="14"
     font-weight="bold"
     text-anchor="middle"
     fill="#333333"
     id="text15">Internal Apps VPC</text><!-- App Server in VPC 1 --><rect
     x="531.03925"
     y="191.54782"
     width="40"
     height="40"
     rx="2"
     ry="2"
     fill="#ffffff"
     stroke="#232f3e"
     stroke-width="1"
     id="rect15" /><text
     x="551.03925"
     y="251.54782"
     font-family="Arial, sans-serif"
     font-size="12px"
     text-anchor="middle"
     fill="#333333"
     id="text17">App Server</text><!-- VPC 2: Shared Services VPC --><rect
     x="900"
     y="150"
     width="200"
     height="150"
     rx="10"
     ry="10"
     fill="#e0f7fa"
     stroke="#b2ebf2"
     stroke-width="1"
     id="rect17" /><text
     x="1000"
     y="170"
     font-family="Arial, sans-serif"
     font-size="14"
     font-weight="bold"
     text-anchor="middle"
     fill="#333333"
     id="text18">Shared Services VPC</text><!-- NLB in VPC 2 --><rect
     x="980"
     y="190"
     width="40"
     height="40"
     rx="2"
     ry="2"
     fill="#ffffff"
     stroke="#232f3e"
     stroke-width="1"
     id="rect18" /><text
     x="1000"
     y="250"
     font-family="Arial, sans-serif"
     font-size="12px"
     text-anchor="middle"
     fill="#333333"
     id="text20">Shared API Service (NLB)</text><!-- VPC 3: Dev/Test VPC --><rect
     x="700"
     y="450"
     width="200"
     height="150"
     rx="10"
     ry="10"
     fill="#e3f2fd"
     stroke="#bbdefb"
     stroke-width="1"
     id="rect20" /><text
     x="800"
     y="470"
     font-family="Arial, sans-serif"
     font-size="14"
     font-weight="bold"
     text-anchor="middle"
     fill="#333333"
     id="text21">Dev/Test VPC</text><!-- Dev Instance in VPC 3 --><rect
     x="780"
     y="500"
     width="40"
     height="40"
     rx="2"
     ry="2"
     fill="#ffffff"
     stroke="#232f3e"
     stroke-width="1"
     id="rect21" /><text
     x="800"
     y="560"
     font-family="Arial, sans-serif"
     font-size="12"
     text-anchor="middle"
     fill="#333333"
     id="text23">Dev Instance</text><!-- Interface Endpoint (ENI) in VPC 1 --><rect
     x="625"
     y="190"
     width="40"
     height="40"
     rx="2"
     ry="2"
     fill="#ffffff"
     stroke="#6f42c1"
     stroke-width="1.5"
     stroke-dasharray="5,2"
     id="rect23" /><text
     x="645"
     y="250"
     font-family="Arial, sans-serif"
     font-size="12"
     text-anchor="middle"
     fill="#333333"
     id="text25">ENI for Shared API</text><!-- TGW Attachments --><!-- VPC 1 to TGW --><path
     d="M 603.00814,278.91938 752.45132,311.5803"
     stroke="#232f3e"
     stroke-width="2"
     fill="none"
     marker-end="url(#arrow-tgw)"
     id="path25" /><text
     x="652.76947"
     y="316.51743"
     font-family="Arial, sans-serif"
     font-size="12px"
     text-anchor="middle"
     fill="#232f3e"
     id="text26">TGW Attachment</text><!-- VPC 2 to TGW --><path
     d="M 998.51373,281.40378 849.15694,308.93371"
     stroke="#232f3e"
     stroke-width="1.91178"
     fill="none"
     marker-end="url(#arrow-tgw)"
     id="path26" /><text
     x="954.19568"
     y="323.86954"
     font-family="Arial, sans-serif"
     font-size="12px"
     text-anchor="middle"
     fill="#232f3e"
     id="text27">TGW Attachment</text><!-- VPC 3 to TGW --><path
     d="M 800,450 V 393.91223"
     stroke="#232f3e"
     stroke-width="1.79026"
     fill="none"
     marker-end="url(#arrow-tgw)"
     id="path27" /><text
     x="849.02155"
     y="425.41736"
     font-family="Arial, sans-serif"
     font-size="12px"
     text-anchor="middle"
     fill="#232f3e"
     id="text28">TGW Attachment</text><!-- AWS Direct Connect (DX) --><path
     d="m 380,333.48259 h 76.09941 q 19.02486,0 38.04971,0 19.02485,0 237.81066,0"
     stroke="#ff4f81"
     stroke-width="2.92595"
     fill="none"
     marker-end="url(#arrow-dx)"
     id="path28" /><!-- DX Location --><circle
     cx="500"
     cy="326.90436"
     r="15"
     fill="#ffffff"
     stroke="#ff4f81"
     stroke-width="2"
     id="circle28" /><text
     x="499.2261"
     y="307.7612"
     font-family="Arial, sans-serif"
     font-size="12px"
     text-anchor="middle"
     fill="#ff4f81"
     id="text30">DX Location</text><text
     x="576.78271"
     y="352.2001"
     font-family="Arial, sans-serif"
     font-size="12px"
     font-weight="bold"
     text-anchor="middle"
     fill="#ff4f81"
     id="text31">AWS Direct Connect (Private Dedicated Line)</text><!-- AWS Site-to-Site VPN --><path
     d="m 382.89751,432.55424 c 30.01625,25.59623 58.00433,45.29288 129.39297,6.08783 71.38864,-39.20505 128.78324,-88.25843 238.30086,-78.26893"
     stroke="#007bff"
     stroke-width="1.58221"
     stroke-dasharray="5, 3"
     fill="none"
     marker-end="url(#arrow-vpn)"
     id="path31" /><!-- Internet Cloud Symbol --><text
     x="435.90118"
     y="450.98108"
     font-family="Arial, sans-serif"
     font-size="26.5147px"
     text-anchor="middle"
     fill="#007bff"
     id="text32"
     transform="scale(0.99171276,1.0083565)"
     style="stroke-width:1.32574">☁️</text><text
     x="429.18741"
     y="432.67828"
     font-family="Arial, sans-serif"
     font-size="12px"
     text-anchor="middle"
     fill="#007bff"
     id="text33">Public Internet</text><text
     x="505.01382"
     y="484.49973"
     font-family="Arial, sans-serif"
     font-size="12px"
     font-weight="bold"
     text-anchor="middle"
     fill="#007bff"
     id="text34">AWS Site-to-Site VPN (IPsec Tunnel)</text><!-- VPC Peering Connection --><path
     d="M 700,225 L 900,225"
     stroke="#28a745"
     stroke-width="2"
     fill="none"
     marker-end="url(#arrow-peering)"
     id="path34" /><text
     x="801.54779"
     y="238.99115"
     font-family="Arial, sans-serif"
     font-size="12px"
     font-weight="bold"
     text-anchor="middle"
     fill="#28a745"
     id="text35">VPC Peering Connection</text><!-- AWS PrivateLink Access --><path
     d="M 665,210 C 700,150 900,150 980,210"
     stroke="#6f42c1"
     stroke-width="2"
     fill="none"
     marker-end="url(#arrow-privatelink)"
     id="path35" /><text
     x="801.54779"
     y="183.93034"
     font-family="Arial, sans-serif"
     font-size="12px"
     font-weight="bold"
     text-anchor="middle"
     fill="#6f42c1"
     id="text36">AWS PrivateLink Access</text><!-- Connection from User Network to CGW --><path
     d="m 181.3284,233.19389 154.36918,85.44748"
     stroke="#333333"
     stroke-width="2.31511"
     fill="none"
     id="path36" /><g
     id="g36"
     transform="translate(290.00663,278.08126)"><rect
       x="10"
       y="40"
       width="80"
       height="25"
       rx="2"
       ry="2"
       fill="#ffffff"
       stroke="#333333"
       stroke-width="2"
       id="rect1" /><rect
       x="17"
       y="55"
       width="10"
       height="5"
       rx="1"
       ry="1"
       fill="#dddddd"
       stroke="#333333"
       stroke-width="1"
       id="rect2" /><rect
       x="32"
       y="55"
       width="10"
       height="5"
       rx="1"
       ry="1"
       fill="#dddddd"
       stroke="#333333"
       stroke-width="1"
       id="rect3" /><rect
       x="47"
       y="55"
       width="10"
       height="5"
       rx="1"
       ry="1"
       fill="#dddddd"
       stroke="#333333"
       stroke-width="1"
       id="rect4" /><rect
       x="62"
       y="55"
       width="10"
       height="5"
       rx="1"
       ry="1"
       fill="#dddddd"
       stroke="#333333"
       stroke-width="1"
       id="rect5-0" /><rect
       x="77"
       y="55"
       width="10"
       height="5"
       rx="1"
       ry="1"
       fill="#dddddd"
       stroke="#333333"
       stroke-width="1"
       id="rect6-9" /><circle
       cx="20"
       cy="47"
       r="2"
       fill="#66ff66"
       stroke="#333333"
       stroke-width="0.5"
       id="circle6" /><circle
       cx="30"
       cy="47"
       r="2"
       fill="#ffcc00"
       stroke="#333333"
       stroke-width="0.5"
       id="circle7" /><circle
       cx="40"
       cy="47"
       r="2"
       fill="#66ff66"
       stroke="#333333"
       stroke-width="0.5"
       id="circle8" /><line
       x1="20"
       y1="40"
       x2="20"
       y2="30"
       stroke="#333333"
       stroke-width="2"
       stroke-linecap="round"
       id="line8" /><line
       x1="80"
       y1="40"
       x2="80"
       y2="30"
       stroke="#333333"
       stroke-width="2"
       stroke-linecap="round"
       id="line9" /><line
       x1="25"
       y1="65"
       x2="25"
       y2="70"
       stroke="#333333"
       stroke-width="2"
       stroke-linecap="round"
       id="line10" /><line
       x1="75"
       y1="65"
       x2="75"
       y2="70"
       stroke="#333333"
       stroke-width="2"
       stroke-linecap="round"
       id="line11" /></g><g
     id="Icon-Architecture/48/Arch_AWS-Transit-Gateway_48"
     stroke="none"
     stroke-width="1"
     fill="none"
     fill-rule="evenodd"
     transform="translate(768.22112,299.92039)"><g
       id="Icon-Architecture-BG/48/Networking-Content-Delivery"
       fill="#8c4fff"><rect
         id="Rectangle"
         x="0"
         y="0"
         width="64"
         height="64" /></g><path
       d="M 34.885,50.757 C 35.572,50.039 36,49.07 36,48 36,46.142 34.721,44.59 33,44.142 V 38.92 c 3.059,-0.44 5.48,-2.861 5.92,-5.92 h 5.223 c 0.446,1.72 1.999,3 3.857,3 1.071,0 2.039,-0.428 2.757,-1.115 -1.252,8.165 -7.706,14.62 -15.872,15.872 M 13.243,34.885 C 13.961,35.572 14.93,36 16,36 c 1.859,0 3.411,-1.28 3.858,-3 h 5.222 c 0.441,3.059 2.862,5.48 5.92,5.92 v 5.222 c -1.72,0.448 -3,2 -3,3.858 0,1.07 0.428,2.039 1.115,2.757 C 20.949,49.505 14.495,43.05 13.243,34.885 M 18,32 c 0,1.103 -0.897,2 -2,2 -1.102,0 -2,-0.897 -2,-2 0,-1.103 0.898,-2 2,-2 1.103,0 2,0.897 2,2 M 29.115,13.243 C 28.428,13.962 28,14.93 28,16 c 0,1.859 1.28,3.411 3,3.858 V 25.08 C 27.942,25.521 25.521,27.941 25.08,31 H 19.858 C 19.411,29.28 17.859,28 16,28 14.93,28 13.961,28.428 13.243,29.115 14.495,20.95 20.949,14.496 29.115,13.243 M 32,14 c 1.103,0 2,0.897 2,2 0,1.103 -0.897,2 -2,2 -1.102,0 -2,-0.897 -2,-2 0,-1.103 0.898,-2 2,-2 m 0,23 c -2.757,0 -5,-2.243 -5,-5 0,-2.757 2.243,-5 5,-5 2.757,0 5,2.243 5,5 0,2.757 -2.243,5 -5,5 m 0,13 c -1.102,0 -2,-0.897 -2,-2 0,-1.103 0.898,-2 2,-2 1.103,0 2,0.897 2,2 0,1.103 -0.897,2 -2,2 M 50,32 c 0,1.103 -0.897,2 -2,2 -1.102,0 -2,-0.897 -2,-2 0,-1.103 0.898,-2 2,-2 1.103,0 2,0.897 2,2 m 0.757,-2.885 C 50.039,28.428 49.071,28 48,28 c -1.858,0 -3.411,1.28 -3.857,3 H 38.92 C 38.48,27.941 36.059,25.521 33,25.08 v -5.222 c 1.721,-0.447 3,-1.999 3,-3.858 0,-1.07 -0.428,-2.038 -1.115,-2.757 8.166,1.253 14.62,7.707 15.872,15.872 M 32,11 C 20.421,11 11,20.421 11,32 11,43.58 20.421,53 32,53 43.579,53 53,43.58 53,32 53,20.421 43.579,11 32,11"
       id="AWS-Transit-Gateway_Icon_48_Squid"
       fill="#ffffff" /></g><g
     id="Icon-Architecture/16/Arch_Amazon-EC2_16"
     stroke="none"
     stroke-width="1"
     fill="none"
     fill-rule="evenodd"
     transform="translate(538.8314,200.02985)"><g
       id="Icon-Architecture-BG/16/Compute"
       fill="#ed7100"><rect
         id="Rectangle-4"
         x="0"
         y="0"
         width="24"
         height="24" /></g><path
       d="m 15,9 h -1 -1 -1 -1 -1 v 1 1 1 1 1 h 1 1 1 1 1 v -1 -1 -1 -1 z m 1,0 h 1 v 1 h -1 v 1 h 1 v 1 h -1 v 1 h 1 v 1 h -1 v 0.308 C 16,14.689 15.689,15 15.308,15 H 15 v 1 h -1 v -1 h -1 v 1 h -1 v -1 h -1 v 1 H 10 V 15 H 9.692 C 9.311,15 9,14.689 9,14.308 V 14 H 8 V 13 H 9 V 12 H 8 V 11 H 9 V 10 H 8 V 9 H 9 V 8.692 C 9,8.311 9.311,8 9.692,8 H 10 V 7 h 1 v 1 h 1 V 7 h 1 v 1 h 1 V 7 h 1 v 1 h 0.308 C 15.689,8 16,8.311 16,8.692 Z M 12,19 H 5 V 13 H 7 V 12 H 4.8 C 4.358,12 4,12.342 4,12.762 v 6.457 C 4,19.65 4.351,20 4.781,20 H 12.2 C 12.642,20 13,19.658 13,19.238 V 17 H 12 Z M 20,4.781 v 7.438 C 20,12.65 19.649,13 19.219,13 H 18 v -1 h 1 V 5 H 12 V 6 H 11 V 4.781 C 11,4.35 11.351,4 11.781,4 h 7.438 C 19.649,4 20,4.35 20,4.781 Z"
       id="Amazon-EC2_Icon_16_Squid"
       fill="#ffffff" /></g><g
     id="Icon-Architecture/16/Arch_Amazon-EC2_16-8"
     stroke="none"
     stroke-width="1"
     fill="none"
     fill-rule="evenodd"
     transform="translate(787.76506,508.48701)"><g
       id="Icon-Architecture-BG/16/Compute-8"
       fill="#ed7100"><rect
         id="Rectangle-4-2"
         x="0"
         y="0"
         width="24"
         height="24" /></g><path
       d="m 15,9 h -1 -1 -1 -1 -1 v 1 1 1 1 1 h 1 1 1 1 1 v -1 -1 -1 -1 z m 1,0 h 1 v 1 h -1 v 1 h 1 v 1 h -1 v 1 h 1 v 1 h -1 v 0.308 C 16,14.689 15.689,15 15.308,15 H 15 v 1 h -1 v -1 h -1 v 1 h -1 v -1 h -1 v 1 H 10 V 15 H 9.692 C 9.311,15 9,14.689 9,14.308 V 14 H 8 V 13 H 9 V 12 H 8 V 11 H 9 V 10 H 8 V 9 H 9 V 8.692 C 9,8.311 9.311,8 9.692,8 H 10 V 7 h 1 v 1 h 1 V 7 h 1 v 1 h 1 V 7 h 1 v 1 h 0.308 C 15.689,8 16,8.311 16,8.692 Z M 12,19 H 5 V 13 H 7 V 12 H 4.8 C 4.358,12 4,12.342 4,12.762 v 6.457 C 4,19.65 4.351,20 4.781,20 H 12.2 C 12.642,20 13,19.658 13,19.238 V 17 H 12 Z M 20,4.781 v 7.438 C 20,12.65 19.649,13 19.219,13 H 18 v -1 h 1 V 5 H 12 V 6 H 11 V 4.781 C 11,4.35 11.351,4 11.781,4 h 7.438 C 19.649,4 20,4.35 20,4.781 Z"
       id="Amazon-EC2_Icon_16_Squid-4"
       fill="#ffffff" /></g><path
     d="m 1000.1857,229.024 c -10.25313,0 -18.59487,-8.42065 -18.59487,-18.77074 0,-10.34915 8.34174,-18.7698 18.59487,-18.7698 10.2521,0 18.5939,8.42065 18.5939,18.7698 0,10.35009 -8.3418,18.77074 -18.5939,18.77074 z m 0,-39.41743 c -11.27853,0 -20.45417,9.2615 -20.45417,20.64669 0,11.38519 9.17564,20.64763 20.45417,20.64763 11.2785,0 20.4532,-9.26244 20.4532,-20.64763 0,-11.38519 -9.1747,-20.64669 -20.4532,-20.64669 z m 4.7244,19.98321 c 0.3635,0.36693 0.3635,0.96003 0,1.32696 l -2.7359,2.76465 -1.3145,-1.32696 1.1509,-1.16273 h -6.70651 v -1.87688 h 6.70651 l -1.1509,-1.16273 1.3145,-1.32696 z m 2.7127,11.22191 h 3.0214 v -3.04994 h -3.0214 z m 3.9511,-4.92683 h -4.8807 c -0.5141,0 -0.9297,0.41948 -0.9297,0.93844 v 4.92683 c 0,0.51896 0.4156,0.93844 0.9297,0.93844 h 4.8807 c 0.5141,0 0.9296,-0.41948 0.9296,-0.93844 v -4.92683 c 0,-0.51896 -0.4155,-0.93844 -0.9296,-0.93844 z m -17.27755,-10.56781 6.78175,-3.61301 -1.45672,-0.39884 0.48622,-1.81119 3.7362,1.02196 c 0.4955,0.13608 0.7874,0.65034 0.6536,1.15147 l -1.0124,3.77348 -1.7942,-0.4908 0.4536,-1.69202 -6.97976,3.71999 z m 13.32645,-2.57134 h 3.0214 v -3.04994 h -3.0214 z m 3.9511,-4.92682 h -4.8807 c -0.5141,0 -0.9297,0.41948 -0.9297,0.93844 v 4.92683 c 0,0.51896 0.4156,0.93844 0.9297,0.93844 h 4.8807 c 0.5141,0 0.9296,-0.41948 0.9296,-0.93844 v -4.92683 c 0,-0.51896 -0.4155,-0.93844 -0.9296,-0.93844 z m -25.94281,15.5744 h 6.21935 v -6.27818 h -6.21935 z m 7.149,-8.15601 h -8.07865 c -0.5141,0 -0.92965,0.42042 -0.92965,0.93844 v 8.15601 c 0,0.51803 0.41555,0.93845 0.92965,0.93845 h 8.07865 c 0.5141,0 0.92965,-0.42042 0.92965,-0.93845 v -8.15601 c 0,-0.51802 -0.41555,-0.93844 -0.92965,-0.93844 z m 11.71731,13.6018 c 0.1338,0.50113 -0.1581,1.01539 -0.6536,1.15147 l -3.7362,1.0229 -0.48622,-1.81119 1.45772,-0.39884 -6.78275,-3.61301 0.86829,-1.66104 6.97976,3.71905 -0.4536,-1.69202 1.7942,-0.4908 z m 3.1254,-7.06085 h 3.0214 v -3.04994 h -3.0214 z m 3.9511,-4.92683 h -4.8807 c -0.5141,0 -0.9297,0.41949 -0.9297,0.93845 v 4.92682 c 0,0.51896 0.4156,0.93845 0.9297,0.93845 h 4.8807 c 0.5141,0 0.9296,-0.41949 0.9296,-0.93845 v -4.92682 c 0,-0.51896 -0.4155,-0.93845 -0.9296,-0.93845 z"
     id="AWS-Elastic-Load-Balancing_Network-Load-Balancer_Resource-Icon_light-bg"
     fill="#8c4fff"
     style="fill-rule:evenodd;stroke:none;stroke-width:0.934036" /><g
     id="Icon-Architecture/16/Arch_AWS-Direct-Connect_16"
     stroke="none"
     stroke-width="1"
     fill="none"
     fill-rule="evenodd"
     transform="translate(487.623,315.08126)"><g
       id="Icon-Architecture-BG/16/Networking-Content-Delivery"
       fill="#8c4fff"><rect
         id="Rectangle-5"
         x="0"
         y="0"
         width="24"
         height="24" /></g><path
       d="m 9.5712775,16.329615 v 1.535416 h 4.8574445 v -1.535416 c 0,-0.02002 -0.05774,-0.07807 -0.161284,-0.07807 H 9.7325618 c -0.1035406,0 -0.1612843,0.05805 -0.1612843,0.07807 M 16.398979,19.05713 V 20 h -0.995582 v -0.94287 c 0,-0.117108 -0.05277,-0.184169 -0.07069,-0.19518 l -6.6843381,0.004 c 9.955e-4,0.007 -0.05177,0.07407 -0.05177,0.191176 V 20 H 7.6010205 v -0.94287 c 0,-0.627578 0.4330782,-1.130042 0.9746749,-1.175083 v -1.552432 c 0,-0.535494 0.4281003,-0.960886 0.9756704,-1.044964 v -4.2289 h 0.9955822 v 4.194869 h 0.954763 V 8.7686413 h 0.995582 V 15.25062 h 0.954763 v -4.194869 h 0.995583 v 4.2289 c 0.548565,0.08408 0.976666,0.50947 0.976666,1.044964 v 1.552432 c 0.541596,0.04504 0.974674,0.547505 0.974674,1.175083 M 20,11.183869 c 0,1.894747 -1.115052,2.855634 -3.311306,2.855634 H 15.319769 V 13.03858 h 1.368925 c 1.644702,0 2.315724,-0.537496 2.315724,-1.854711 0,-1.16007 -0.685956,-1.8857394 -2.038952,-2.1579905 -0.222015,-0.045041 -0.385291,-0.234216 -0.399229,-0.4614255 -0.06372,-1.0970118 -0.676,-1.4873718 -1.18076,-1.4873718 -0.337502,0 -0.654098,0.1631504 -0.870139,0.4474126 C 14.403833,7.6696277 14.223633,7.7396923 14.045423,7.7166711 13.865223,7.6886452 13.71489,7.5655317 13.653164,7.3943738 13.463008,6.8778974 13.175285,6.4505033 12.719308,6.0070943 12.227491,5.5266512 10.881464,4.4957003 8.9749238,5.2804241 7.8668409,5.7368451 7.0305519,6.9579713 7.0305519,8.1200431 c 0,0.1361255 0.00896,0.2692483 0.02489,0.4003692 C 7.0863045,8.772645 6.9250202,9.0078619 6.680107,9.0679173 6.0508991,9.2220595 4.9955821,9.6994998 4.9955821,11.161849 l 0.00498,0.16315 c 0.0677,1.183091 1.1857383,1.713581 2.2639537,1.713581 h 1.4167134 v 1.000923 H 7.2645137 c -1.8298799,0 -3.1689378,-1.094009 -3.2575446,-2.660454 L 4,11.161849 C 4,9.7605561 4.7526601,8.6855647 6.0359654,8.2181335 c -9.956e-4,-0.03203 -9.956e-4,-0.06506 -9.956e-4,-0.09809 0,-1.5704484 1.0782154,-3.1549098 2.5626284,-3.7654729 1.7004538,-0.6996453 3.5004668,-0.3513241 4.8146348,0.9338613 0.371352,0.3613332 0.656089,0.7186628 0.875117,1.1080219 0.326551,-0.2071911 0.703876,-0.3202954 1.098127,-0.3202954 0.901997,0 1.905544,0.6455954 2.133532,2.0528934 C 19.122892,8.5654539 20,9.6394444 20,11.183869"
       id="AWS-Direct-Connect_Icon_16_Squid"
       fill="#ffffff" /></g><path
     d="m 643.11797,211.70951 h 3.40032 v -3.36405 h -3.40032 z m 5.04856,0 h 3.3995 v -3.36405 h -3.3995 z m -5.87268,1.63066 h 10.0963 c 0.45491,0 0.82412,-0.36446 0.82412,-0.81533 v -4.99471 c 0,-0.45088 -0.36921,-0.81533 -0.82412,-0.81533 h -10.0963 c -0.45573,0 -0.82412,0.36445 -0.82412,0.81533 v 4.99471 c 0,0.45087 0.36839,0.81533 0.82412,0.81533 z m 13.5988,1.22299 h -2.06029 c -0.45574,0 -0.82412,0.36445 -0.82412,0.81533 v 1.32491 h -1.95729 v -1.32491 c 0,-0.45088 -0.3692,-0.81533 -0.82412,-0.81533 h -2.88442 c -0.45574,0 -0.82412,0.36445 -0.82412,0.81533 v 1.32491 h -5.56363 v -1.32491 c 0,-0.45088 -0.36921,-0.81533 -0.82412,-0.81533 h -0.61809 v -9.07136 h 16.3802 z m 0.82412,-10.70202 h -18.02844 c -0.45574,0 -0.82412,0.36445 -0.82412,0.81533 v 10.70202 c 0,0.45088 0.36838,0.81533 0.82412,0.81533 h 0.61809 v 1.32491 c 0,0.45088 0.36838,0.81533 0.82412,0.81533 h 7.21187 c 0.45492,0 0.82412,-0.36445 0.82412,-0.81533 v -1.32491 h 1.23618 v 1.32491 c 0,0.45088 0.36838,0.81533 0.82412,0.81533 h 3.60553 c 0.45491,0 0.82411,-0.36445 0.82411,-0.81533 v -1.32491 h 2.0603 c 0.45492,0 0.82412,-0.36445 0.82412,-0.81533 v -10.70202 c 0,-0.45088 -0.3692,-0.81533 -0.82412,-0.81533 z m -20.08874,-0.6115 v 15.69592 c 0,0.45088 -0.3692,0.81533 -0.82412,0.81533 h -2.5968 v -1.63066 h 1.77268 v -14.06526 h -1.77268 v -1.63066 h 2.5968 c 0.45492,0 0.82412,0.36446 0.82412,0.81533 z m 7.82996,23.44237 c -9.09004,0 -16.48404,-7.31596 -16.48404,-16.30823 0,-8.99146 7.394,-16.30741 16.48404,-16.30741 9.0884,0 16.4824,7.31595 16.4824,16.30741 0,8.99227 -7.394,16.30823 -16.4824,16.30823 z m 0,-34.2463 c -9.99822,0 -18.13228,8.04649 -18.13228,17.93807 0,9.89158 8.13406,17.93889 18.13228,17.93889 9.9974,0 18.13064,-8.04731 18.13064,-17.93889 0,-9.89158 -8.13324,-17.93807 -18.13064,-17.93807 z"
     id="AWS-Amazon-VPC_Elastic-network-interface_Resource-Icon_light-bg"
     fill="#8c4fff"
     style="fill-rule:evenodd;stroke:none;stroke-width:0.819713" /></svg>
