<?xml version="1.0" encoding="UTF-8" standalone="no"?>
<svg
   viewBox="0 0 122 62"
   version="1.1"
   id="svg27"
   sodipodi:docname="pinpoint_engagement_flow.svg"
   width="122"
   height="62"
   inkscape:version="1.4 (86a8ad7, 2024-10-11)"
   xml:space="preserve"
   xmlns:inkscape="http://www.inkscape.org/namespaces/inkscape"
   xmlns:sodipodi="http://sodipodi.sourceforge.net/DTD/sodipodi-0.dtd"
   xmlns="http://www.w3.org/2000/svg"
   xmlns:svg="http://www.w3.org/2000/svg"><sodipodi:namedview
     id="namedview27"
     pagecolor="#ffffff"
     bordercolor="#000000"
     borderopacity="0.25"
     inkscape:showpageshadow="2"
     inkscape:pageopacity="0.0"
     inkscape:pagecheckerboard="0"
     inkscape:deskcolor="#d1d1d1"
     inkscape:zoom="4"
     inkscape:cx="-200.5"
     inkscape:cy="-41.375"
     inkscape:window-width="3840"
     inkscape:window-height="2036"
     inkscape:window-x="-12"
     inkscape:window-y="-12"
     inkscape:window-maximized="1"
     inkscape:current-layer="svg27" /><!-- Background --><rect
     width="709.5"
     height="334.5"
     style="fill:#f8f9fa;stroke-width:1"
     id="rect1"
     x="-569.75"
     y="-251" /><!-- Client Applications --><rect
     x="-551.5"
     y="-134"
     width="150"
     height="100"
     rx="8"
     ry="8"
     style="fill:#e3f2fd;stroke:#1976d2;stroke-width:2"
     id="rect2" /><text
     x="-477"
     y="-90"
     style="font-weight:bold;font-size:14px;font-family:Arial, sans-serif;text-anchor:middle;fill:#1565c0"
     id="text2">Client Applications</text><text
     x="-477"
     y="-70"
     style="font-size:11px;font-family:Arial, sans-serif;text-anchor:middle;fill:#1976d2"
     id="text3">(with Pinpoint SDK)</text><text
     x="-477"
     y="-50"
     style="font-size:10px;font-family:Arial, sans-serif;text-anchor:middle;fill:#1976d2"
     id="text4">Mobile Apps, Web Apps</text><!-- Mobile Icon --><rect
     x="-524.125"
     y="-128.375"
     width="22.541666"
     height="22.75"
     rx="2.5046296"
     ry="2.5277779"
     style="fill:#1976d2;stroke:#1565c0;stroke-width:1"
     id="rect4" /><text
     x="-515.21869"
     y="-111.43068"
     style="font-size:12.5809px;font-family:Arial, sans-serif;text-anchor:middle;fill:#ffffff;stroke-width:1"
     id="text5"
     transform="scale(0.99541066,1.0046105)">📱</text><!-- Web Icon --><rect
     x="-456.66669"
     y="-127.875"
     width="22.541666"
     height="22.75"
     rx="2.5046296"
     ry="2.5277779"
     style="fill:#1976d2;stroke:#1565c0;stroke-width:1"
     id="rect5" /><text
     x="-447.44931"
     y="-110.93297"
     style="font-size:12.5809px;font-family:Arial, sans-serif;text-anchor:middle;fill:#ffffff;stroke-width:1"
     id="text6"
     transform="scale(0.99541066,1.0046105)">🌐</text><!-- Amazon Pinpoint --><rect
     x="-301.5"
     y="-147.25"
     width="200"
     height="156.75"
     rx="10"
     ry="9.796875"
     style="fill:#fff3e0;stroke:#ff9800;stroke-width:3"
     id="rect6" /><text
     x="-180.25"
     y="-116"
     style="font-weight:bold;font-size:16px;font-family:Arial, sans-serif;text-anchor:middle;fill:#e65100"
     id="text7">Amazon Pinpoint</text><text
     x="-179.25"
     y="-99.75"
     style="font-size:12px;font-family:Arial, sans-serif;text-anchor:middle;fill:#bf360c"
     id="text8">Analytics &amp; Engagement</text><!-- Pinpoint Icon --><!-- Internal Functions --><rect
     x="-288.5"
     y="-80"
     width="176.5"
     height="30"
     rx="5.515625"
     ry="5"
     style="fill:#e1f5fe;stroke:#0288d1;stroke-width:1"
     id="rect9" /><text
     x="-199.75"
     y="-60"
     style="font-size:11px;font-family:Arial, sans-serif;text-anchor:middle;fill:#0277bd"
     id="text10">Collect Analytics &amp; Segment Users</text><rect
     x="-288.5"
     y="-40"
     width="176.5"
     height="30"
     rx="5.515625"
     ry="5"
     style="fill:#e8f5e8;stroke:#388e3c;stroke-width:1"
     id="rect10" /><text
     x="-199.75"
     y="-20"
     style="font-size:11px;font-family:Arial, sans-serif;text-anchor:middle;fill:#2e7d32"
     id="text11">Execute Targeted Campaigns</text><!-- Communication Channels --><!-- Push Notifications --><rect
     x="-1"
     y="-221.25"
     width="120"
     height="68.25"
     rx="6"
     ry="6.8249998"
     style="fill:#f3e5f5;stroke:#7b1fa2;stroke-width:2"
     id="rect11" /><text
     x="59.75"
     y="-185.25"
     style="font-weight:bold;font-size:12px;font-family:Arial, sans-serif;text-anchor:middle;fill:#6a1b9a"
     id="text12">Push Notifications</text><text
     x="59.75"
     y="-165.25"
     style="font-size:10px;font-family:Arial, sans-serif;text-anchor:middle;fill:#4a148c"
     id="text13">(iOS/Android)</text><!-- Push Icon --><rect
     x="9"
     y="-216.25"
     width="18"
     height="18"
     rx="2"
     ry="2"
     style="fill:#9c27b0;stroke:#7b1fa2;stroke-width:1"
     id="rect13" /><text
     x="18"
     y="-203.25"
     style="font-size:10px;font-family:Arial, sans-serif;text-anchor:middle;fill:#ffffff"
     id="text14">🔔</text><!-- SMS --><rect
     x="-2.1105393e-09"
     y="-106"
     width="120"
     height="60"
     rx="6"
     ry="6"
     style="fill:#e8f5e8;stroke:#388e3c;stroke-width:2"
     id="rect14" /><text
     x="61.75"
     y="-64.75"
     style="font-weight:bold;font-size:12px;font-family:Arial, sans-serif;text-anchor:middle;fill:#2e7d32"
     id="text15">SMS Messages</text><!-- SMS Icon --><rect
     x="6.75"
     y="-97.75"
     width="18"
     height="18"
     rx="2"
     ry="2"
     style="fill:#4caf50;stroke:#388e3c;stroke-width:1"
     id="rect16" /><text
     x="15.75"
     y="-84.75"
     style="font-size:10px;font-family:Arial, sans-serif;text-anchor:middle;fill:#ffffff"
     id="text17">💬</text><!-- Email --><rect
     x="-1"
     y="-15.25"
     width="120"
     height="60"
     rx="6"
     ry="6"
     style="fill:#e3f2fd;stroke:#1976d2;stroke-width:2"
     id="rect17" /><text
     x="58.5"
     y="18.5"
     style="font-weight:bold;font-size:12px;font-family:Arial, sans-serif;text-anchor:middle;fill:#1565c0"
     id="text18">Email</text><text
     x="59"
     y="29.75"
     style="font-size:10px;font-family:Arial, sans-serif;text-anchor:middle;fill:#0d47a1"
     id="text19">(Personalized)</text><!-- Email Icon --><rect
     x="9"
     y="-10.25"
     width="18"
     height="18"
     rx="2"
     ry="2"
     style="fill:#1976d2;stroke:#1565c0;stroke-width:1"
     id="rect19" /><text
     x="18"
     y="2.75"
     style="font-size:10px;font-family:Arial, sans-serif;text-anchor:middle;fill:#ffffff"
     id="text20">📧</text><!-- Arrow definitions --><defs
     id="defs21"><marker
       id="flowArrow"
       markerWidth="10"
       markerHeight="7"
       refX="0"
       refY="3.5"
       orient="auto"><polygon
         points="0,7 0,0 10,3.5 "
         style="fill:#2196f3"
         id="polygon20" /></marker><marker
       id="engagementArrow"
       markerWidth="10"
       markerHeight="7"
       refX="0"
       refY="3.5"
       orient="auto"><polygon
         points="0,7 0,0 10,3.5 "
         style="fill:#4caf50"
         id="polygon21" /></marker></defs><!-- Flow Arrows --><!-- 1. Apps to Pinpoint --><path
     id="line21"
     style="stroke:#2196f3;stroke-width:3;marker-end:url(#flowArrow)"
     d="M -400.5,-80.75 H -332"
     sodipodi:nodetypes="cc" /><text
     x="-351"
     y="-58.75"
     style="font-weight:bold;font-size:11px;font-family:Arial, sans-serif;text-anchor:middle;fill:#1976d2"
     id="text21">User Analytics</text><text
     x="-350"
     y="-42.25"
     style="font-size:10px;font-family:Arial, sans-serif;text-anchor:middle;fill:#1976d2"
     id="text22">&amp; Custom Events</text><!-- 2. Pinpoint to Channels --><path
     id="line22"
     style="stroke:#4caf50;stroke-width:3;marker-end:url(#engagementArrow)"
     d="M -99.25,-109.75 -31,-143.25"
     sodipodi:nodetypes="cc" /><path
     id="line23"
     style="stroke:#4caf50;stroke-width:3;marker-end:url(#engagementArrow)"
     d="m -99.75,-67 68.25,-0.25"
     sodipodi:nodetypes="cc" /><path
     id="line24"
     style="stroke:#4caf50;stroke-width:3;marker-end:url(#engagementArrow)"
     d="m -99,-25.75 67.5,21.5"
     sodipodi:nodetypes="cc" /><text
     x="-36.75"
     y="-106.75"
     style="font-weight:bold;font-size:11px;font-family:Arial, sans-serif;text-anchor:middle;fill:#388e3c"
     id="text24">Targeted</text><text
     x="-36.75"
     y="-91.75"
     style="font-weight:bold;font-size:11px;font-family:Arial, sans-serif;text-anchor:middle;fill:#388e3c"
     id="text25">Messages</text><!-- Step indicators --><g
     id="Icon-Architecture/32/Arch_Amazon-Pinpoint_32"
     stroke="none"
     stroke-width="1"
     fill="none"
     fill-rule="evenodd"
     transform="translate(-291.75,-142.75)"><g
       id="Icon-Architecture-BG/32/Business-Applications"
       fill="#dd344c"><rect
         id="Rectangle"
         x="0"
         y="0"
         width="40"
         height="40" /></g><g
       id="Icon-Service/32/Amazon-Pinpoint"
       transform="translate(6,6)"
       fill="#ffffff"><path
         d="m 21.882454,4.5069797 c 0,0.8979884 0.730618,1.6286062 1.627604,1.6286062 0.897988,0 1.627604,-0.7306178 1.627604,-1.6286062 0,-0.8979884 -0.729616,-1.6286062 -1.627604,-1.6286062 -0.896986,0 -1.627604,0.7306178 -1.627604,1.6286062 z m -8.23724,9.1392373 2.848307,-2.84931 c -0.690529,-0.539194 -1.54943,-0.8739347 -2.491517,-0.8739347 -2.246975,0 -4.0760251,1.8280477 -4.0760251,4.0750237 0,2.246975 1.8290501,4.076025 4.0760251,4.076025 2.246976,0 4.075024,-1.82905 4.075024,-4.076025 0,-0.943089 -0.334742,-1.800988 -0.874938,-2.49252 l -2.848307,2.84931 z M 20.047391,8.6611783 17.910659,10.79791 c 0.719594,0.875939 1.168588,1.981387 1.168588,3.200086 0,2.8002 -2.277042,5.078244 -5.077243,5.078244 -2.8002,0 -5.0782442,-2.278044 -5.0782442,-5.078244 0,-2.799199 2.2780442,-5.0772429 5.0782442,-5.0772429 1.219701,0 2.324147,0.4499964 3.200086,1.1685879 L 19.338822,7.9526094 C 17.913666,6.6928198 16.048536,5.9221132 14.002004,5.9221132 c -4.4538617,0 -8.0768841,3.6230225 -8.0768841,8.0758828 0,4.453862 3.6230224,8.076884 8.0768841,8.076884 4.45286,0 8.075883,-3.623022 8.075883,-8.076884 0,-2.046532 -0.770707,-3.911662 -2.030496,-5.3368177 z M 21.324218,5.9672131 C 21.044599,5.5492877 20.880235,5.0471759 20.880235,4.5069797 c 0,-1.4502111 1.179612,-2.6308254 2.629823,-2.6308254 1.450211,0 2.629823,1.1806143 2.629823,2.6308254 0,1.4502112 -1.179612,2.6308254 -2.629823,2.6308254 -0.549216,0 -1.058343,-0.1703772 -1.480278,-0.4590164 l -1.27382,1.2738207 c 1.439186,1.6075596 2.324146,3.7222426 2.324146,6.0453866 0,5.006084 -4.072017,9.079103 -9.078102,9.079103 -5.0060845,0 -9.0791033,-4.073019 -9.0791033,-9.079103 0,-5.0060853 4.0730188,-9.078102 9.0791033,-9.078102 2.323144,0 4.437827,0.8839574 6.045387,2.3241464 z M 28,14 C 28,21.719092 21.719092,28 14,28 6.2809077,28 0,21.719092 0,14 0,6.2809077 6.2809077,0 14,0 c 1.960341,0 3.856539,0.39888324 5.639487,1.1856253 L 19.233589,2.1026559 C 17.580929,1.3730403 15.82003,1.0022192 14,1.0022192 6.8321283,1.0022192 1.0022192,6.8331305 1.0022192,14 c 0,7.166869 5.8299091,12.997781 12.9977808,12.997781 7.166869,0 12.997781,-5.830912 12.997781,-12.997781 0,-1.824039 -0.368817,-3.57692 -1.093421,-5.2085332 l 0.916028,-0.406901 C 27.603121,10.145465 28,12.034648 28,14 Z"
         id="Amazon-Pinpoint-Icon_32_Squid" /></g></g></svg>
