<?xml version="1.0" encoding="UTF-8" standalone="no"?>
<svg
   viewBox="0 0 800 600"
   version="1.1"
   id="svg37"
   sodipodi:docname="tgw_hub.svg"
   xml:space="preserve"
   inkscape:version="1.4 (86a8ad7, 2024-10-11)"
   xmlns:inkscape="http://www.inkscape.org/namespaces/inkscape"
   xmlns:sodipodi="http://sodipodi.sourceforge.net/DTD/sodipodi-0.dtd"
   xmlns="http://www.w3.org/2000/svg"
   xmlns:svg="http://www.w3.org/2000/svg"><sodipodi:namedview
     id="namedview37"
     pagecolor="#ffffff"
     bordercolor="#000000"
     borderopacity="0.25"
     inkscape:showpageshadow="2"
     inkscape:pageopacity="0.0"
     inkscape:pagecheckerboard="0"
     inkscape:deskcolor="#d1d1d1"
     inkscape:zoom="3.015"
     inkscape:cx="426.534"
     inkscape:cy="300"
     inkscape:window-width="3840"
     inkscape:window-height="2036"
     inkscape:window-x="-12"
     inkscape:window-y="-12"
     inkscape:window-maximized="1"
     inkscape:current-layer="svg37" /><!-- White background --><rect
     width="100%"
     height="100%"
     fill="white"
     id="rect1" /><!-- Define arrowhead marker --><defs
     id="defs1"><marker
       style="overflow:visible"
       id="RoundedArrow"
       refX="0"
       refY="0"
       orient="auto-start-reverse"
       inkscape:stockid="Rounded arrow"
       markerWidth="1"
       markerHeight="1"
       viewBox="0 0 1 1"
       inkscape:isstock="true"
       inkscape:collect="always"
       preserveAspectRatio="xMidYMid"><path
         transform="scale(0.7)"
         d="m -0.21114562,-4.1055728 6.42229122,3.21114561 a 1,1 90 0 1 0,1.78885438 L -0.21114562,4.1055728 A 1.236068,1.236068 31.717474 0 1 -2,3 v -6 a 1.236068,1.236068 148.28253 0 1 1.78885438,-1.1055728 z"
         style="fill:context-stroke;fill-rule:evenodd;stroke:none"
         id="path8" /></marker><marker
       id="arrowhead-green"
       markerWidth="10"
       markerHeight="10"
       refX="9"
       refY="3"
       orient="auto"><polygon
         points="0 0, 10 3, 0 6"
         fill="#27ae60"
         id="polygon1" /></marker></defs><!-- On-premises data center --><!-- Transit Gateway (Hub) --><g
     id="transit-gateway"><circle
       cx="400"
       cy="300"
       r="60"
       fill="#16a085"
       stroke="#0e6655"
       stroke-width="3"
       id="circle6" /><text
       x="400.33167"
       y="277.08954"
       text-anchor="middle"
       fill="#ffffff"
       font-family="Arial, sans-serif"
       font-size="14px"
       font-weight="bold"
       id="text6">AWS Transit</text><text
       x="400.33167"
       y="294.08954"
       text-anchor="middle"
       fill="#ffffff"
       font-family="Arial, sans-serif"
       font-size="14px"
       font-weight="bold"
       id="text7">Gateway</text><!-- Hub icon elements --><g
       id="Icon-Architecture/32/Arch_AWS-Transit-Gateway_32"
       stroke="none"
       stroke-width="1"
       fill="none"
       fill-rule="evenodd"
       transform="translate(380.51907,303.17247)"><g
         id="Icon-Architecture-BG/32/Networking-Content-Delivery"
         fill="#8c4fff"><rect
           id="Rectangle"
           x="0"
           y="0"
           width="40"
           height="40" /></g><path
         d="m 21.631,31.876 c 0.483,-0.443 0.792,-1.074 0.792,-1.78 0,-1.165 -0.826,-2.139 -1.923,-2.37 v -4.217 c 1.56,-0.222 2.787,-1.449 3.009,-3.009 h 4.218 c 0.23,1.097 1.205,1.923 2.369,1.923 0.706,0 1.337,-0.309 1.78,-0.792 -0.727,5.311 -4.933,9.518 -10.245,10.245 M 8.124,21.631 c 0.444,0.483 1.074,0.792 1.78,0.792 1.164,0 2.139,-0.826 2.37,-1.923 h 4.217 c 0.222,1.56 1.45,2.787 3.009,3.009 v 4.217 c -1.097,0.231 -1.923,1.205 -1.923,2.37 0,0.706 0.309,1.337 0.792,1.78 C 13.058,31.149 8.852,26.942 8.124,21.631 M 11.327,20 c 0,0.785 -0.638,1.423 -1.423,1.423 -0.785,0 -1.423,-0.638 -1.423,-1.423 0,-0.785 0.638,-1.423 1.423,-1.423 0.785,0 1.423,0.638 1.423,1.423 M 18.369,8.124 c -0.483,0.443 -0.792,1.074 -0.792,1.78 0,1.165 0.826,2.139 1.923,2.37 v 4.217 c -1.559,0.222 -2.787,1.449 -3.009,3.009 h -4.217 c -0.231,-1.097 -1.206,-1.923 -2.37,-1.923 -0.706,0 -1.336,0.309 -1.78,0.792 C 8.852,13.058 13.058,8.851 18.369,8.124 M 20,8.481 c 0.784,0 1.423,0.638 1.423,1.423 0,0.785 -0.639,1.423 -1.423,1.423 -0.784,0 -1.423,-0.638 -1.423,-1.423 0,-0.785 0.639,-1.423 1.423,-1.423 m 0,14.079 c -1.411,0 -2.559,-1.149 -2.559,-2.56 0,-1.411 1.148,-2.56 2.559,-2.56 1.411,0 2.56,1.149 2.56,2.56 0,1.411 -1.149,2.56 -2.56,2.56 m 0,8.959 c -0.784,0 -1.423,-0.638 -1.423,-1.423 0,-0.784 0.639,-1.423 1.423,-1.423 0.784,0 1.423,0.639 1.423,1.423 0,0.785 -0.639,1.423 -1.423,1.423 M 31.52,20 c 0,0.785 -0.639,1.423 -1.424,1.423 -0.784,0 -1.423,-0.638 -1.423,-1.423 0,-0.785 0.639,-1.423 1.423,-1.423 0.785,0 1.424,0.638 1.424,1.423 m 0.356,-1.631 c -0.443,-0.483 -1.074,-0.792 -1.78,-0.792 -1.164,0 -2.139,0.826 -2.369,1.923 H 23.509 C 23.287,17.94 22.06,16.713 20.5,16.491 v -4.217 c 1.097,-0.231 1.923,-1.205 1.923,-2.37 0,-0.706 -0.309,-1.337 -0.792,-1.78 5.312,0.727 9.518,4.934 10.245,10.245 M 20,7 C 12.832,7 7,12.832 7,20 7,27.168 12.832,33 20,33 27.168,33 33,27.168 33,20 33,12.832 27.168,7 20,7"
         id="AWS-Transit-Gateway_Icon_32_Squid"
         fill="#ffffff" /></g></g><g
     id="datacenter"
     transform="translate(-3.9800995,1.8905473)"><rect
       x="350"
       y="480"
       width="100"
       height="80"
       fill="#3498db"
       stroke="#2c3e50"
       stroke-width="2"
       rx="5"
       id="rect2" /><text
       x="401.65839"
       y="497.06467"
       text-anchor="middle"
       fill="#ffffff"
       font-family="Arial, sans-serif"
       font-size="12px"
       font-weight="bold"
       id="text2">On-Premises</text><text
       x="400.33167"
       y="510.76285"
       text-anchor="middle"
       fill="#ffffff"
       font-family="Arial, sans-serif"
       font-size="12px"
       font-weight="bold"
       id="text3">Data Center</text><path
       d="m 382.57972,539.59104 h 1 v -1 h -1 z m 0,-7.5005 h 1 v -1 h -1 z m 0,-7.4995 h 1 v -1 h -1 z m 1,3.9995 h 13.0005 v -0.9995 h -13.0005 z m -3.4995,5.5005 h 20 v -4.5005 h -20 z m 3.4995,2 h 13.00099 v -1 h -13.00099 z m -3.4995,5.4995 h 20 v -4.4995 h -20 z m 0,-14.9995 h 20 v -4.5 h -20 z m 20.5,1 c 0.27649,0 0.5,-0.224 0.5,-0.5 v -5.5 c 0,-0.276 -0.22351,-0.5 -0.5,-0.5 h -21 c -0.27651,0 -0.5,0.224 -0.5,0.5 v 5.5 c 0,0.276 0.22349,0.5 0.5,0.5 h 2.9995 v 0.9995 h -2.9995 c -0.27651,0 -0.5,0.224 -0.5,0.5 v 5.5005 c 0,0.276 0.22349,0.5 0.5,0.5 h 2.9995 v 1 h -2.9995 c -0.27651,0 -0.5,0.224 -0.5,0.5 v 5.4995 c 0,0.27601 0.22349,0.5 0.5,0.5 h 21 c 0.27649,0 0.5,-0.22399 0.5,-0.5 v -5.4995 c 0,-0.276 -0.22351,-0.5 -0.5,-0.5 h -2.99951 v -1 h 2.99951 c 0.27649,0 0.5,-0.224 0.5,-0.5 v -5.5005 c 0,-0.276 -0.22351,-0.5 -0.5,-0.5 h -3 v -0.9995 z"
       id="Fill-1"
       fill="#ffffff"
       style="fill-rule:evenodd;stroke:none;stroke-width:1" /><path
       d="m 415.4764,541.52452 c -0.6245,0.106 -1.2895,0.185 -1.977,0.235 -0.2785,0.02 -0.5615,0.035 -0.848,0.046 -0.5755,0.0195 -1.1755,0.0195 -1.7485,0 -0.2875,-0.011 -0.5705,-0.026 -0.849,-0.046 -0.6875,-0.05 -1.3525,-0.129 -1.977,-0.235 -2.4535,-0.416 -3.978,-1.2885 -3.978,-2.2765 v -13.9945 c 1.4985,0.948 4.37,1.538 7.678,1.538 3.305,0 6.14,-0.5805 7.6445,-1.519 v 13.9755 c 0,1.0065 -1.475,1.8575 -3.945,2.2765 m -3.6995,-19.6535 c 4.27,0 7.06,1.092 7.557,2.216 -0.834,0.833 -3.505,1.7045 -7.557,1.7045 -4.048,0 -6.764,-0.89 -7.5745,-1.7165 l -0.018,0.0175 c 0.492,-1.126 3.297,-2.2215 7.5925,-2.2215 m 0,-1 c -5.1095,0 -8.678,1.469 -8.678,3.5725 v 14.8045 c 0,0.9135 0.625,2.553 4.811,3.263 0.6555,0.1105 1.3525,0.1935 2.072,0.2455 0.29,0.021 0.585,0.037 0.885,0.048 0.299,0.0105 0.6025,0.016 0.91,0.016 0.307,0 0.61,-0.005 0.91,-0.016 0.3,-0.011 0.5945,-0.027 0.8845,-0.048 0.7195,-0.052 1.4165,-0.135 2.072,-0.2455 4.157,-0.7055 4.778,-2.347 4.778,-3.263 v -14.8045 c 0,-2.1035 -3.555,-3.5725 -8.6445,-3.5725"
       id="Fill-9"
       fill="#ffffff"
       style="fill-rule:evenodd;stroke:none;stroke-width:1" /></g><!-- VPC 1: Production VPC (top-left) --><g
     id="vpc1"><rect
       x="50"
       y="40"
       width="140"
       height="100"
       fill="#e8f5e9"
       stroke="#27ae60"
       stroke-width="2"
       rx="5"
       id="rect10" /><text
       x="120"
       y="65"
       text-anchor="middle"
       fill="#27ae60"
       font-family="Arial, sans-serif"
       font-size="13"
       font-weight="bold"
       id="text10">Production VPC</text><!-- TGW Attachment --><rect
       x="95"
       y="90"
       width="50"
       height="35"
       fill="#d5f4e6"
       stroke="#16a085"
       stroke-width="2"
       rx="3"
       id="rect11" /><text
       x="120"
       y="105"
       text-anchor="middle"
       fill="#0e6655"
       font-family="Arial, sans-serif"
       font-size="9"
       font-weight="bold"
       id="text11">TGW</text><text
       x="120"
       y="115"
       text-anchor="middle"
       fill="#0e6655"
       font-family="Arial, sans-serif"
       font-size="9"
       font-weight="bold"
       id="text12">Attach</text></g><!-- VPC 2: Development VPC (top-right) --><g
     id="vpc2"><rect
       x="610"
       y="40"
       width="140"
       height="100"
       fill="#fff3e0"
       stroke="#f39c12"
       stroke-width="2"
       rx="5"
       id="rect12" /><text
       x="680"
       y="65"
       text-anchor="middle"
       fill="#f39c12"
       font-family="Arial, sans-serif"
       font-size="13"
       font-weight="bold"
       id="text13">Development VPC</text><!-- TGW Attachment --><rect
       x="655"
       y="90"
       width="50"
       height="35"
       fill="#d5f4e6"
       stroke="#16a085"
       stroke-width="2"
       rx="3"
       id="rect13" /><text
       x="680"
       y="105"
       text-anchor="middle"
       fill="#0e6655"
       font-family="Arial, sans-serif"
       font-size="9"
       font-weight="bold"
       id="text14">TGW</text><text
       x="680"
       y="115"
       text-anchor="middle"
       fill="#0e6655"
       font-family="Arial, sans-serif"
       font-size="9"
       font-weight="bold"
       id="text15">Attach</text></g><!-- VPC 3: Shared Services VPC (middle-left) --><g
     id="vpc3"><rect
       x="50"
       y="250"
       width="140"
       height="100"
       fill="#f3e5f5"
       stroke="#9b59b6"
       stroke-width="2"
       rx="5"
       id="rect15" /><text
       x="120"
       y="275"
       text-anchor="middle"
       fill="#9b59b6"
       font-family="Arial, sans-serif"
       font-size="13"
       font-weight="bold"
       id="text16">Shared Services</text><text
       x="120"
       y="290"
       text-anchor="middle"
       fill="#9b59b6"
       font-family="Arial, sans-serif"
       font-size="13"
       font-weight="bold"
       id="text17">VPC</text><!-- TGW Attachment --><rect
       x="95"
       y="305"
       width="50"
       height="35"
       fill="#d5f4e6"
       stroke="#16a085"
       stroke-width="2"
       rx="3"
       id="rect17" /><text
       x="120"
       y="320"
       text-anchor="middle"
       fill="#0e6655"
       font-family="Arial, sans-serif"
       font-size="9"
       font-weight="bold"
       id="text18">TGW</text><text
       x="120"
       y="330"
       text-anchor="middle"
       fill="#0e6655"
       font-family="Arial, sans-serif"
       font-size="9"
       font-weight="bold"
       id="text19">Attach</text></g><!-- VPC 4: Test VPC (middle-right) --><g
     id="vpc4"><rect
       x="610"
       y="250"
       width="140"
       height="100"
       fill="#ffebee"
       stroke="#e74c3c"
       stroke-width="2"
       rx="5"
       id="rect19" /><text
       x="680"
       y="275"
       text-anchor="middle"
       fill="#e74c3c"
       font-family="Arial, sans-serif"
       font-size="13"
       font-weight="bold"
       id="text20">Test VPC</text><!-- TGW Attachment --><rect
       x="655"
       y="305"
       width="50"
       height="35"
       fill="#d5f4e6"
       stroke="#16a085"
       stroke-width="2"
       rx="3"
       id="rect20" /><text
       x="680"
       y="320"
       text-anchor="middle"
       fill="#0e6655"
       font-family="Arial, sans-serif"
       font-size="9"
       font-weight="bold"
       id="text21">TGW</text><text
       x="680"
       y="330"
       text-anchor="middle"
       fill="#0e6655"
       font-family="Arial, sans-serif"
       font-size="9"
       font-weight="bold"
       id="text22">Attach</text></g><!-- Clean connection lines from TGW to VPC Attachments --><path
     d="M 351.70812,263.69817 145,125"
     stroke="#27ae60"
     stroke-width="3"
     fill="none"
     marker-end="url(#arrowhead-green)"
     id="path22"
     sodipodi:nodetypes="cc" /><path
     d="M 449.2869,262.70315 680,125"
     stroke="#27ae60"
     stroke-width="3"
     fill="none"
     marker-end="url(#arrowhead-green)"
     id="path23"
     sodipodi:nodetypes="cc" /><path
     d="M 339.3864,310 145,322"
     stroke="#27ae60"
     stroke-width="3"
     fill="none"
     marker-end="url(#arrowhead-green)"
     id="path24"
     sodipodi:nodetypes="cc" /><path
     d="M 461.27695,307.01493 655,322"
     stroke="#27ae60"
     stroke-width="3"
     fill="none"
     marker-end="url(#arrowhead-green)"
     id="path25"
     sodipodi:nodetypes="cc" /><!-- VPN/Direct Connect Attachment at TGW --><!-- Single connection from on-premises to VPN Attachment --><path
     d="M 400,480 V 380.65506"
     stroke="#27ae60"
     stroke-width="4"
     fill="none"
     marker-end="url(#arrowhead-green)"
     id="path26"
     style="marker-end:url(#RoundedArrow)"
     sodipodi:nodetypes="cc" /><!-- Connection from VPN Attachment to TGW --><!-- Annotation labels --><text
     x="279.33664"
     y="417.85242"
     fill="#27ae60"
     font-family="Arial, sans-serif"
     font-size="12px"
     font-weight="bold"
     id="text27">Single Connection</text><text
     x="274.33664"
     y="432.85242"
     fill="#27ae60"
     font-family="Arial, sans-serif"
     font-size="11px"
     id="text28">(VPN or Direct Connect)</text><text
     x="301.33499"
     y="206.25208"
     fill="#27ae60"
     font-family="Arial, sans-serif"
     font-size="11px"
     font-weight="bold"
     id="text29">Centralized</text><text
     x="311.33499"
     y="221.25208"
     fill="#27ae60"
     font-family="Arial, sans-serif"
     font-size="11px"
     font-weight="bold"
     id="text30">routing</text><text
     x="439.40298"
     y="202.60365"
     fill="#27ae60"
     font-family="Arial, sans-serif"
     font-size="11px"
     font-weight="bold"
     id="text31">VPC-to-VPC</text><text
     x="439.40298"
     y="217.60365"
     fill="#27ae60"
     font-family="Arial, sans-serif"
     font-size="11px"
     font-weight="bold"
     id="text32">transit enabled</text><!-- Performance callout box --><rect
     x="520"
     y="400"
     width="200"
     height="75"
     fill="#e8f8f5"
     stroke="#16a085"
     stroke-width="2"
     rx="5"
     id="rect32" /><text
     x="620"
     y="420"
     text-anchor="middle"
     fill="#16a085"
     font-family="Arial, sans-serif"
     font-size="11"
     font-weight="bold"
     id="text33">Performance Features:</text><text
     x="620"
     y="437"
     text-anchor="middle"
     fill="#0e6655"
     font-family="Arial, sans-serif"
     font-size="10"
     id="text34">• ECMP: Up to 5 Gbps</text><text
     x="620"
     y="452"
     text-anchor="middle"
     fill="#0e6655"
     font-family="Arial, sans-serif"
     font-size="10"
     id="text35">• Accelerated VPN</text><text
     x="620"
     y="467"
     text-anchor="middle"
     fill="#0e6655"
     font-family="Arial, sans-serif"
     font-size="10"
     id="text36">• AWS Global Network</text><!-- Title annotation --><text
     x="400"
     y="25"
     text-anchor="middle"
     fill="#2c3e50"
     font-family="Arial, sans-serif"
     font-size="14"
     font-weight="bold"
     id="text37">Simplified Hub-and-Spoke Topology</text></svg>
