<?xml version="1.0" encoding="utf-8"?>
<!-- Generator: Adobe Illustrator 22.0.1, SVG Export Plug-In . SVG Version: 6.00 Build 0)  -->
<svg version="1.1" id="Object" xmlns="http://www.w3.org/2000/svg" xmlns:xlink="http://www.w3.org/1999/xlink" x="0px" y="0px"
	 viewBox="0 0 52 52" style="enable-background:new 0 0 52 52;" xml:space="preserve">
<style type="text/css">
	.st0{fill:none;stroke:#0A74BC;stroke-linecap:round;stroke-linejoin:round;stroke-miterlimit:10;}
</style>
<path class="st0" d="M37.7,40.9c1-0.5,1.9-1.2,2.6-2.1c0.7,0.8,1.4,1.5,2.3,2c0.7,0.4,1.5,0.7,2.3,0.8 M14.2,40.9
	c-0.9-0.5-1.8-1.2-2.5-2.1c-1.2,1.5-2.9,2.5-4.7,2.8 M39,47.2c-1.7,0-3.2-0.8-4.3-2.2c-1.1,1.3-2.6,2.2-4.3,2.2
	c-1.1,0-2.1-0.3-2.9-0.9 M24.6,46.3c-0.9,0.6-1.9,0.9-2.9,0.9c-1.7,0-3.2-0.8-4.3-2.2c-1.1,1.3-2.6,2.2-4.3,2.2 M25.9,18.6
	c-6.5,0-11.7-1.5-11.7-3.3v9.2c0,1.8,5.2,3.3,11.7,3.3c6.5,0,11.7-1.5,11.7-3.3v-9.2C37.6,17.1,32.4,18.6,25.9,18.6z M25.9,27.8
	c-6.5,0-11.7-1.5-11.7-3.3v9.2c0,1.8,5.2,3.3,11.7,3.3c6.5,0,11.7-1.5,11.7-3.3v-9.2C37.6,26.4,32.4,27.8,25.9,27.8z M14.2,40.9
	c1.3,0.5,2.8,0.8,4.3,0.8c2.9,0,5.6-1.1,7.5-2.9c1.9,1.8,4.6,2.9,7.5,2.9c1.4,0,2.8-0.3,4.1-0.7 M27.8,46.4
	c-0.7-0.3-1.3-0.8-1.8-1.3c-0.5,0.5-1.2,0.9-1.8,1.3 M25.9,37.1c-6.5,0-11.7-1.5-11.7-3.3v7.1c1.3,0.5,2.8,0.8,4.3,0.8
	c2.9,0,5.6-1.1,7.5-2.9c1.9,1.8,4.6,2.9,7.5,2.9c1.4,0,2.8-0.3,4.1-0.7v-7.2C37.6,35.6,32.4,37.1,25.9,37.1z M25.9,12
	c-6.5,0-11.7,1.5-11.7,3.3c0,1.8,5.2,3.3,11.7,3.3c6.5,0,11.7-1.5,11.7-3.3C37.6,13.5,32.4,12,25.9,12z M26,1C12.2,1,1,12.2,1,26
	s11.2,25,25,25s25-11.2,25-25S39.8,1,26,1z"/>
</svg>
